<?xml version="1.0" encoding="UTF-8" standalone="no"?>
<!-- Generator: Adobe Illustrator 18.1.1, SVG Export Plug-In . SVG Version: 6.00 Build 0)  -->

<svg
   xmlns:dc="http://purl.org/dc/elements/1.1/"
   xmlns:cc="http://creativecommons.org/ns#"
   xmlns:rdf="http://www.w3.org/1999/02/22-rdf-syntax-ns#"
   xmlns:svg="http://www.w3.org/2000/svg"
   xmlns="http://www.w3.org/2000/svg"
   xmlns:sodipodi="http://sodipodi.sourceforge.net/DTD/sodipodi-0.dtd"
   xmlns:inkscape="http://www.inkscape.org/namespaces/inkscape"
   version="1.1"
   id="Layer_1"
   x="0px"
   y="0px"
   width="198px"
   height="99px"
   viewBox="0 0 198 99"
   enable-background="new 0 0 198 99"
   xml:space="preserve"
   inkscape:version="0.91 r13725"
   sodipodi:docname="buttons.svg"><metadata
     id="metadata327"><rdf:RDF><cc:Work
         rdf:about=""><dc:format>image/svg+xml</dc:format><dc:type
           rdf:resource="http://purl.org/dc/dcmitype/StillImage" /><dc:title /></cc:Work></rdf:RDF></metadata><defs
     id="defs325" /><sodipodi:namedview
     pagecolor="#ffffff"
     bordercolor="#666666"
     borderopacity="1"
     objecttolerance="10"
     gridtolerance="10"
     guidetolerance="10"
     inkscape:pageopacity="0"
     inkscape:pageshadow="2"
     inkscape:window-width="2560"
     inkscape:window-height="1017"
     id="namedview323"
     showgrid="false"
     showguides="true"
     inkscape:guide-bbox="true"
     inkscape:zoom="5.6568542"
     inkscape:cx="39.578753"
     inkscape:cy="63.931007"
     inkscape:window-x="-8"
     inkscape:window-y="-8"
     inkscape:window-maximized="1"
     inkscape:current-layer="Layer_1" /><circle
     style="fill:#f92672;fill-opacity:1"
     id="circle7"
     r="12"
     cy="16.608999"
     cx="16.5" /><polyline
     style="fill:none;stroke:#ffffff;stroke-width:2.30489993;stroke-miterlimit:10;stroke-opacity:0.94117647"
     id="polyline9"
     points="21.453,12.745 15.788,20.571    11.775,16.658  "
     stroke-miterlimit="10"
     transform="translate(-0.12000084,0)" /><circle
     style="fill:#ffffff"
     id="circle13"
     r="12"
     cy="49.465"
     cx="16.5" /><polyline
     style="fill:none;stroke:#75715e;stroke-width:2.30489993;stroke-miterlimit:10;stroke-opacity:1"
     id="polyline15"
     points="21.453,45.601 15.788,53.427    11.775,49.514  "
     stroke-miterlimit="10"
     transform="translate(-0.12000084,0)" /><circle
     style="fill:#75715e;fill-opacity:1"
     id="circle19"
     r="12"
     cy="82.476997"
     cx="16.5" /><polyline
     style="fill:none;stroke:#ffffff;stroke-width:2.30489993;stroke-miterlimit:10;stroke-opacity:1"
     id="polyline21"
     points="21.453,78.612 15.788,86.438    11.775,82.525  "
     stroke-miterlimit="10"
     transform="translate(-0.12000084,0)" /><circle
     style="fill:#f92672;fill-opacity:1"
     id="circle25"
     r="12"
     cy="16.608999"
     cx="49.5" /><polygon
     style="fill:#ffffff;fill-opacity:1"
     id="polygon27"
     points="49.307,11.53 54.701,16.875 49.331,22.245 49.331,18.563 45.412,18.539 45.412,15.313 49.307,15.313 "
     transform="translate(-0.26100159,0)" /><circle
     style="fill:#ffffff"
     id="circle31"
     r="12"
     cy="49.465"
     cx="49.5" /><polygon
     style="fill:#75715e;fill-opacity:1"
     id="polygon33"
     points="49.307,44.386 54.701,49.731 49.331,55.101 49.331,51.419 45.412,51.394 45.412,48.169 49.307,48.169 "
     transform="translate(-0.26100159,0)" /><circle
     style="fill:#75715e;fill-opacity:1"
     id="circle37"
     r="12"
     cy="82.476997"
     cx="49.5" /><polygon
     style="fill:#ffffff;fill-opacity:1"
     id="polygon39"
     points="49.307,77.397 54.701,82.743 49.331,88.113 49.331,84.43 45.412,84.406 45.412,81.18 49.307,81.18 "
     transform="translate(-0.26100159,0)" /><rect
     style="fill:#f92672;fill-opacity:1"
     id="rect43"
     height="21"
     width="21"
     y="6.1090002"
     x="105" /><polygon
     style="fill:#ffffff;fill-opacity:1"
     id="polygon45"
     points="110.586,15.116 116.032,9.621 121.502,15.091 117.751,15.091 117.726,19.083 114.44,19.083 114.44,15.116 "
     transform="translate(-0.54399872,0)" /><rect
     style="fill:#ffffff;fill-opacity:1"
     id="rect47"
     height="1"
     width="1"
     y="22.193001"
     x="109.967" /><rect
     style="fill:#ffffff;fill-opacity:1"
     id="rect49"
     height="1"
     width="1"
     y="22.193001"
     x="111.974" /><rect
     style="fill:#ffffff;fill-opacity:1"
     id="rect51"
     height="1"
     width="1"
     y="22.193001"
     x="113.973" /><rect
     style="fill:#ffffff;fill-opacity:1"
     id="rect53"
     height="1"
     width="1"
     y="22.193001"
     x="115.981" /><rect
     style="fill:#ffffff;fill-opacity:1"
     id="rect55"
     height="1"
     width="1"
     y="22.193001"
     x="117.98" /><rect
     style="fill:#ffffff;fill-opacity:1"
     id="rect57"
     height="1"
     width="1"
     y="22.193001"
     x="119.987" /><rect
     style="fill:#f92672;fill-opacity:1"
     id="rect61"
     height="21"
     width="21"
     y="6.1090002"
     x="138" /><polygon
     style="fill:#ffffff;fill-opacity:1"
     id="polygon63"
     points="154.644,13.588 149.198,19.083 143.728,13.612 147.479,13.613 147.504,9.621 150.79,9.621 150.79,13.588 "
     transform="translate(-0.68600464,0)" /><rect
     style="fill:#ffffff;fill-opacity:1"
     id="rect65"
     height="1"
     width="1"
     y="22.193001"
     x="142.96599" /><rect
     style="fill:#ffffff;fill-opacity:1"
     id="rect67"
     height="1"
     width="1"
     y="22.193001"
     x="144.974" /><rect
     style="fill:#ffffff;fill-opacity:1"
     id="rect69"
     height="1"
     width="1"
     y="22.193001"
     x="146.97299" /><rect
     style="fill:#ffffff;fill-opacity:1"
     id="rect71"
     height="1"
     width="1"
     y="22.193001"
     x="148.98" /><rect
     style="fill:#ffffff;fill-opacity:1"
     id="rect73"
     height="1"
     width="1"
     y="22.193001"
     x="150.98" /><rect
     style="fill:#ffffff;fill-opacity:1"
     id="rect75"
     height="1"
     width="1"
     y="22.193001"
     x="152.987" /><rect
     style="fill:#ffffff"
     id="rect79"
     height="21"
     width="21"
     y="38.965"
     x="105" /><polygon
     style="fill:#75715e;fill-opacity:1"
     id="polygon81"
     points="110.586,47.971 116.032,42.476 121.502,47.947 117.751,47.947 117.726,51.939 114.44,51.939 114.44,47.971 "
     transform="translate(-0.54399872,0)" /><rect
     style="fill:#75715e;fill-opacity:1"
     id="rect83"
     height="1"
     width="1"
     y="55.049"
     x="109.967" /><rect
     style="fill:#75715e;fill-opacity:1"
     id="rect85"
     height="1"
     width="1"
     y="55.049"
     x="111.974" /><rect
     style="fill:#75715e;fill-opacity:1"
     id="rect87"
     height="1"
     width="1"
     y="55.049"
     x="113.973" /><rect
     style="fill:#75715e;fill-opacity:1"
     id="rect89"
     height="1"
     width="1"
     y="55.049"
     x="115.981" /><rect
     style="fill:#75715e;fill-opacity:1"
     id="rect91"
     height="1"
     width="1"
     y="55.049"
     x="117.98" /><rect
     style="fill:#75715e;fill-opacity:1"
     id="rect93"
     height="1"
     width="1"
     y="55.049"
     x="119.987" /><rect
     style="fill:#ffffff"
     id="rect97"
     height="21"
     width="21"
     y="38.965"
     x="138" /><polygon
     style="fill:#75715e;fill-opacity:1"
     id="polygon99"
     points="154.644,46.444 149.198,51.939 143.728,46.468 147.479,46.468 147.504,42.477 150.79,42.476 150.79,46.444 "
     transform="translate(-0.68600464,0)" /><rect
     style="fill:#75715e;fill-opacity:1"
     id="rect101"
     height="1"
     width="1"
     y="55.049"
     x="142.96599" /><rect
     style="fill:#75715e;fill-opacity:1"
     id="rect103"
     height="1"
     width="1"
     y="55.049"
     x="144.974" /><rect
     style="fill:#75715e;fill-opacity:1"
     id="rect105"
     height="1"
     width="1"
     y="55.049"
     x="146.97299" /><rect
     style="fill:#75715e;fill-opacity:1"
     id="rect107"
     height="1"
     width="1"
     y="55.049"
     x="148.98" /><rect
     style="fill:#75715e;fill-opacity:1"
     id="rect109"
     height="1"
     width="1"
     y="55.049"
     x="150.98" /><rect
     style="fill:#75715e;fill-opacity:1"
     id="rect111"
     height="1"
     width="1"
     y="55.049"
     x="152.987" /><rect
     style="fill:#75715e;fill-opacity:1"
     id="rect115"
     height="21"
     width="21"
     y="71.976997"
     x="105" /><polygon
     style="fill:#ffffff;fill-opacity:1"
     id="polygon117"
     points="110.586,80.983 116.032,75.488 121.502,80.959 117.751,80.958 117.726,84.95 114.44,84.95 114.44,80.983 "
     transform="translate(-0.54399872,0)" /><rect
     style="fill:#ffffff;fill-opacity:1"
     id="rect119"
     height="1"
     width="1"
     y="88.060997"
     x="109.967" /><rect
     style="fill:#ffffff;fill-opacity:1"
     id="rect121"
     height="1"
     width="1"
     y="88.060997"
     x="111.974" /><rect
     style="fill:#ffffff;fill-opacity:1"
     id="rect123"
     height="1"
     width="1"
     y="88.060997"
     x="113.973" /><rect
     style="fill:#ffffff;fill-opacity:1"
     id="rect125"
     height="1"
     width="1"
     y="88.060997"
     x="115.981" /><rect
     style="fill:#ffffff;fill-opacity:1"
     id="rect127"
     height="1"
     width="1"
     y="88.060997"
     x="117.98" /><rect
     style="fill:#ffffff;fill-opacity:1"
     id="rect129"
     height="1"
     width="1"
     y="88.060997"
     x="119.987" /><rect
     style="fill:#75715e;fill-opacity:1"
     id="rect133"
     height="21"
     width="21"
     y="71.976997"
     x="138" /><polygon
     style="fill:#ffffff;fill-opacity:1"
     id="polygon135"
     points="154.644,79.455 149.198,84.95 143.728,79.48 147.479,79.48 147.504,75.488 150.79,75.488 150.79,79.455 "
     transform="translate(-0.68600464,0)" /><rect
     style="fill:#ffffff;fill-opacity:1"
     id="rect137"
     height="1"
     width="1"
     y="88.060997"
     x="142.96599" /><rect
     style="fill:#ffffff;fill-opacity:1"
     id="rect139"
     height="1"
     width="1"
     y="88.060997"
     x="144.974" /><rect
     style="fill:#ffffff;fill-opacity:1"
     id="rect141"
     height="1"
     width="1"
     y="88.060997"
     x="146.97299" /><rect
     style="fill:#ffffff;fill-opacity:1"
     id="rect143"
     height="1"
     width="1"
     y="88.060997"
     x="148.98" /><rect
     style="fill:#ffffff;fill-opacity:1"
     id="rect145"
     height="1"
     width="1"
     y="88.060997"
     x="150.98" /><rect
     style="fill:#ffffff;fill-opacity:1"
     id="rect147"
     height="1"
     width="1"
     y="88.060997"
     x="152.987" /><path
     style="fill:#655100"
     inkscape:connector-curvature="0"
     id="path151"
     d="M 87.042,22.097" /><rect
     style="fill:#f92672;fill-opacity:1"
     id="rect153"
     height="21"
     width="21"
     y="6.1090002"
     x="72" /><polygon
     style="fill:#ffffff;fill-opacity:1"
     id="polygon155"
     points="88.421,14.079 88.421,15.057 87.445,15.057 83.44,15.057 83.44,10.094 84.441,10.094 "
     transform="translate(-0.40299988,0)" /><polygon
     style="fill:#ffffff;fill-opacity:1"
     id="polygon157"
     points="87.445,22.097 87.445,14.87 88.421,14.87 88.421,23.134 77.399,23.134 77.399,10.094 83.562,10.094 83.568,11.093 78.404,11.093 78.404,22.097 "
     transform="translate(-0.40299988,0)" /><rect
     style="fill:#ffffff;fill-opacity:1"
     id="rect159"
     height="0.99599999"
     width="0.995"
     y="12.111"
     x="78.996002" /><rect
     style="fill:#ffffff;fill-opacity:1"
     id="rect161"
     height="0.99599999"
     width="0.995"
     y="12.111"
     x="80.991997" /><rect
     style="fill:#ffffff;fill-opacity:1"
     id="rect163"
     height="0.99599999"
     width="0.995"
     y="14.103"
     x="78.996002" /><rect
     style="fill:#ffffff;fill-opacity:1"
     id="rect165"
     height="0.99599999"
     width="0.995"
     y="14.103"
     x="80.991997" /><rect
     style="fill:#ffffff;fill-opacity:1"
     id="rect167"
     height="0.99599999"
     width="0.995"
     y="16.115999"
     x="78.996002" /><rect
     style="fill:#ffffff;fill-opacity:1"
     id="rect169"
     height="0.99599999"
     width="0.995"
     y="16.115999"
     x="80.991997" /><rect
     style="fill:#ffffff;fill-opacity:1"
     id="rect171"
     height="0.99599999"
     width="0.995"
     y="16.115999"
     x="83" /><rect
     style="fill:#ffffff;fill-opacity:1"
     id="rect173"
     height="0.99599999"
     width="0.995"
     y="16.115999"
     x="84.997002" /><rect
     style="fill:#ffffff;fill-opacity:1"
     id="rect175"
     height="0.99599999"
     width="0.995"
     y="18.118"
     x="78.996002" /><rect
     style="fill:#ffffff;fill-opacity:1"
     id="rect177"
     height="0.99599999"
     width="0.995"
     y="18.118"
     x="80.991997" /><rect
     style="fill:#ffffff;fill-opacity:1"
     id="rect179"
     height="0.99599999"
     width="0.995"
     y="20.132"
     x="78.996002" /><rect
     style="fill:#ffffff;fill-opacity:1"
     id="rect181"
     height="0.99599999"
     width="0.995"
     y="20.132"
     x="80.991997" /><rect
     style="fill:#ffffff;fill-opacity:1"
     id="rect183"
     height="0.99599999"
     width="0.995"
     y="18.118"
     x="83" /><rect
     style="fill:#ffffff;fill-opacity:1"
     id="rect185"
     height="0.99599999"
     width="0.995"
     y="18.118"
     x="84.997002" /><rect
     style="fill:#ffffff;fill-opacity:1"
     id="rect187"
     height="0.99599999"
     width="0.995"
     y="20.132"
     x="83" /><rect
     style="fill:#ffffff;fill-opacity:1"
     id="rect189"
     height="0.99599999"
     width="0.995"
     y="20.132"
     x="84.997002" /><path
     style="fill:#006468"
     inkscape:connector-curvature="0"
     id="path193"
     d="M 87.042,54.953" /><rect
     style="fill:#ffffff"
     id="rect195"
     height="21"
     width="21"
     y="38.965"
     x="72" /><polygon
     style="fill:#75715e;fill-opacity:1"
     id="polygon197"
     points="88.421,46.935 88.421,47.912 87.445,47.912 83.44,47.912 83.44,42.95 84.441,42.95 "
     transform="translate(-0.40299988,0)" /><polygon
     style="fill:#75715e;fill-opacity:1"
     id="polygon199"
     points="87.445,54.953 87.445,47.726 88.421,47.726 88.421,55.99 77.399,55.99 77.399,42.95 83.586,42.95 83.599,43.951 78.404,43.949 78.404,54.953 "
     transform="translate(-0.40299988,0)" /><rect
     style="fill:#75715e;fill-opacity:1"
     id="rect201"
     height="0.99599999"
     width="0.995"
     y="44.966999"
     x="78.996002" /><rect
     style="fill:#75715e;fill-opacity:1"
     id="rect203"
     height="0.99599999"
     width="0.995"
     y="44.966999"
     x="80.991997" /><rect
     style="fill:#75715e;fill-opacity:1"
     id="rect205"
     height="0.99599999"
     width="0.995"
     y="46.959"
     x="78.996002" /><rect
     style="fill:#75715e;fill-opacity:1"
     id="rect207"
     height="0.99599999"
     width="0.995"
     y="46.959"
     x="80.991997" /><rect
     style="fill:#75715e;fill-opacity:1"
     id="rect209"
     height="0.99599999"
     width="0.995"
     y="48.972"
     x="78.996002" /><rect
     style="fill:#75715e;fill-opacity:1"
     id="rect211"
     height="0.99599999"
     width="0.995"
     y="48.972"
     x="80.991997" /><rect
     style="fill:#75715e;fill-opacity:1"
     id="rect213"
     height="0.99599999"
     width="0.995"
     y="48.972"
     x="83" /><rect
     style="fill:#75715e;fill-opacity:1"
     id="rect215"
     height="0.99599999"
     width="0.995"
     y="48.972"
     x="84.997002" /><rect
     style="fill:#75715e;fill-opacity:1"
     id="rect217"
     height="0.99599999"
     width="0.995"
     y="50.973999"
     x="78.996002" /><rect
     style="fill:#75715e;fill-opacity:1"
     id="rect219"
     height="0.99599999"
     width="0.995"
     y="50.973999"
     x="80.991997" /><rect
     style="fill:#75715e;fill-opacity:1"
     id="rect221"
     height="0.99599999"
     width="0.995"
     y="52.987"
     x="78.996002" /><rect
     style="fill:#75715e;fill-opacity:1"
     id="rect223"
     height="0.99599999"
     width="0.995"
     y="52.987"
     x="80.991997" /><rect
     style="fill:#75715e;fill-opacity:1"
     id="rect225"
     height="0.99599999"
     width="0.995"
     y="50.973999"
     x="83" /><rect
     style="fill:#75715e;fill-opacity:1"
     id="rect227"
     height="0.99599999"
     width="0.995"
     y="50.973999"
     x="84.997002" /><rect
     style="fill:#75715e;fill-opacity:1"
     id="rect229"
     height="0.99599999"
     width="0.995"
     y="52.987"
     x="83" /><rect
     style="fill:#75715e;fill-opacity:1"
     id="rect231"
     height="0.99599999"
     width="0.995"
     y="52.987"
     x="84.997002" /><path
     style="fill:#006468"
     inkscape:connector-curvature="0"
     id="path235"
     d="M 87.042,87.965" /><rect
     style="fill:#75715e;fill-opacity:1"
     id="rect237"
     height="21"
     width="21"
     y="71.976997"
     x="72" /><polygon
     style="fill:#ffffff;fill-opacity:1"
     id="polygon239"
     points="88.421,79.946 88.421,80.924 87.445,80.924 83.44,80.924 83.44,75.961 84.441,75.961 "
     transform="translate(-0.40299988,0)" /><polygon
     style="fill:#ffffff;fill-opacity:1"
     id="polygon241"
     points="87.445,87.965 87.445,80.738 88.421,80.738 88.421,89.002 77.399,89.002 77.399,75.961 83.586,75.961 83.599,76.963 78.404,76.961 78.404,87.965 "
     transform="translate(-0.40299988,0)" /><rect
     style="fill:#ffffff;fill-opacity:1"
     id="rect243"
     height="0.99599999"
     width="0.995"
     y="77.977997"
     x="78.996002" /><rect
     style="fill:#ffffff;fill-opacity:1"
     id="rect245"
     height="0.99599999"
     width="0.995"
     y="77.977997"
     x="80.991997" /><rect
     style="fill:#ffffff;fill-opacity:1"
     id="rect247"
     height="0.99599999"
     width="0.995"
     y="79.970001"
     x="78.996002" /><rect
     style="fill:#ffffff;fill-opacity:1"
     id="rect249"
     height="0.99599999"
     width="0.995"
     y="79.970001"
     x="80.991997" /><rect
     style="fill:#ffffff;fill-opacity:1"
     id="rect251"
     height="0.99599999"
     width="0.995"
     y="81.984001"
     x="78.996002" /><rect
     style="fill:#ffffff;fill-opacity:1"
     id="rect253"
     height="0.99599999"
     width="0.995"
     y="81.984001"
     x="80.991997" /><rect
     style="fill:#ffffff;fill-opacity:1"
     id="rect255"
     height="0.99599999"
     width="0.995"
     y="81.984001"
     x="83" /><rect
     style="fill:#ffffff;fill-opacity:1"
     id="rect257"
     height="0.99599999"
     width="0.995"
     y="81.984001"
     x="84.997002" /><rect
     style="fill:#ffffff;fill-opacity:1"
     id="rect259"
     height="0.99599999"
     width="0.995"
     y="83.986"
     x="78.996002" /><rect
     style="fill:#ffffff;fill-opacity:1"
     id="rect261"
     height="0.99599999"
     width="0.995"
     y="83.986"
     x="80.991997" /><rect
     style="fill:#ffffff;fill-opacity:1"
     id="rect263"
     height="0.99599999"
     width="0.995"
     y="85.999001"
     x="78.996002" /><rect
     style="fill:#ffffff;fill-opacity:1"
     id="rect265"
     height="0.99599999"
     width="0.995"
     y="85.999001"
     x="80.991997" /><rect
     style="fill:#ffffff;fill-opacity:1"
     id="rect267"
     height="0.99599999"
     width="0.995"
     y="83.986"
     x="83" /><rect
     style="fill:#ffffff;fill-opacity:1"
     id="rect269"
     height="0.99599999"
     width="0.995"
     y="83.986"
     x="84.997002" /><rect
     style="fill:#ffffff;fill-opacity:1"
     id="rect271"
     height="0.99599999"
     width="0.995"
     y="85.999001"
     x="83" /><rect
     style="fill:#ffffff;fill-opacity:1"
     id="rect273"
     height="0.99599999"
     width="0.995"
     y="85.999001"
     x="84.997002" /><rect
     style="fill:#f92672;fill-opacity:1"
     id="rect277"
     height="21"
     width="21"
     y="6.1090002"
     x="171" /><rect
     style="fill:#ffffff;fill-opacity:1"
     id="rect279"
     height="0.99800003"
     width="0.99900001"
     y="16.101"
     x="186.991" /><rect
     style="fill:#ffffff;fill-opacity:1"
     id="rect281"
     height="0.99800003"
     width="0.99900001"
     y="16.101"
     x="188.99699" /><rect
     style="fill:#ffffff;fill-opacity:1"
     id="rect283"
     height="0.99800003"
     width="0.99900001"
     y="16.101"
     x="174.00499" /><circle
     style="fill:#f92672;fill-opacity:1;stroke:#ffffff;stroke-width:1.95439994;stroke-miterlimit:10;stroke-opacity:1"
     id="circle285"
     r="4.0900002"
     cy="16.101"
     cx="180.97499"
     stroke-miterlimit="10" /><rect
     style="fill:#ffffff;fill-opacity:1"
     id="rect287"
     height="4.4230752"
     width="2.6800456"
     transform="matrix(0.69148824,0.72238772,-0.72238772,0.69148824,0,0)"
     y="-115.36562"
     x="135.55544" /><rect
     style="fill:#ffffff;fill-opacity:1"
     id="rect289"
     height="1.9960001"
     width="2.0280001"
     y="15.103"
     x="179.961" /><rect
     style="fill:#ffffff"
     id="rect293"
     height="21"
     width="21"
     y="38.965"
     x="171" /><rect
     style="fill:#75715e;fill-opacity:1"
     id="rect295"
     height="0.99800003"
     width="0.99900001"
     y="48.957001"
     x="186.991" /><rect
     style="fill:#75715e;fill-opacity:1"
     id="rect297"
     height="0.99800003"
     width="0.99900001"
     y="48.957001"
     x="188.99699" /><rect
     style="fill:#75715e;fill-opacity:1"
     id="rect299"
     height="0.99800003"
     width="0.99900001"
     y="48.957001"
     x="174.00499" /><circle
     style="fill:none;stroke:#75715e;stroke-width:1.95439994;stroke-miterlimit:10;stroke-opacity:1"
     id="circle301"
     r="4.0900002"
     cy="48.957001"
     cx="180.97499"
     stroke-miterlimit="10" /><rect
     style="fill:#75715e;fill-opacity:1"
     id="rect303"
     height="4.4230752"
     width="2.6800456"
     transform="matrix(0.69148824,0.72238772,-0.72238772,0.69148824,0,0)"
     y="-92.645485"
     x="159.28856" /><rect
     style="fill:#75715e;fill-opacity:1"
     id="rect305"
     height="1.9960001"
     width="2.0280001"
     y="47.959"
     x="179.961" /><rect
     style="fill:#75715e;fill-opacity:1"
     id="rect309"
     height="21"
     width="21"
     y="71.976997"
     x="171" /><rect
     style="fill:#ffffff;fill-opacity:1"
     id="rect311"
     height="0.99800003"
     width="0.99900001"
     y="81.969002"
     x="186.991" /><rect
     style="fill:#ffffff;fill-opacity:1"
     id="rect313"
     height="0.99800003"
     width="0.99900001"
     y="81.969002"
     x="188.99699" /><rect
     style="fill:#ffffff;fill-opacity:1"
     id="rect315"
     height="0.99800003"
     width="0.99900001"
     y="81.969002"
     x="174.00499" /><circle
     style="fill:none;stroke:#ffffff;stroke-width:1.95439994;stroke-miterlimit:10;stroke-opacity:1"
     id="circle317"
     r="4.0900002"
     cy="81.969002"
     cx="180.97499"
     stroke-miterlimit="10" /><rect
     style="fill:#ffffff;fill-opacity:1"
     id="rect319"
     height="4.4230752"
     width="2.6800456"
     transform="matrix(0.69148824,0.72238772,-0.72238772,0.69148824,0,0)"
     y="-69.817429"
     x="183.13429" /><rect
     style="fill:#ffffff;fill-opacity:1"
     id="rect321"
     height="1.9960001"
     width="2.0280001"
     y="80.970001"
     x="179.961" /></svg>
