<?xml version="1.0" encoding="UTF-8" standalone="no"?>
<!-- Generator: Adobe Illustrator 18.1.1, SVG Export Plug-In . SVG Version: 6.00 Build 0)  -->

<svg
   xmlns:dc="http://purl.org/dc/elements/1.1/"
   xmlns:cc="http://creativecommons.org/ns#"
   xmlns:rdf="http://www.w3.org/1999/02/22-rdf-syntax-ns#"
   xmlns:svg="http://www.w3.org/2000/svg"
   xmlns="http://www.w3.org/2000/svg"
   xmlns:sodipodi="http://sodipodi.sourceforge.net/DTD/sodipodi-0.dtd"
   xmlns:inkscape="http://www.inkscape.org/namespaces/inkscape"
   version="1.1"
   id="Layer_1"
   x="0px"
   y="0px"
   width="48px"
   height="66px"
   viewBox="0 0 48 66"
   enable-background="new 0 0 48 66"
   xml:space="preserve"
   inkscape:version="0.91 r13725"
   sodipodi:docname="lock.svg"><metadata
     id="metadata17"><rdf:RDF><cc:Work
         rdf:about=""><dc:format>image/svg+xml</dc:format><dc:type
           rdf:resource="http://purl.org/dc/dcmitype/StillImage" /><dc:title></dc:title></cc:Work></rdf:RDF></metadata><defs
     id="defs15" /><sodipodi:namedview
     pagecolor="#ffffff"
     bordercolor="#666666"
     borderopacity="1"
     objecttolerance="10"
     gridtolerance="10"
     guidetolerance="10"
     inkscape:pageopacity="0"
     inkscape:pageshadow="2"
     inkscape:window-width="2560"
     inkscape:window-height="1017"
     id="namedview13"
     showgrid="false"
     inkscape:zoom="3.5757576"
     inkscape:cx="-14.872881"
     inkscape:cy="33"
     inkscape:window-x="-8"
     inkscape:window-y="-8"
     inkscape:window-maximized="1"
     inkscape:current-layer="Layer_1" /><path
     style="fill:#75715e;fill-opacity:1"
     inkscape:connector-curvature="0"
     id="path5"
     d="m 39.903,66 -32,0 c -4.4,0 -8,-3.6 -8,-8 l 0,-26.276 c 0,-4.4 3.6,-8 8,-8 l 32,0 c 4.4,0 8,3.6 8,8 l 0,26.276 c 0,4.4 -3.6,8 -8,8 z" /><polygon
     style="fill:#ffffff"
     id="polygon7"
     points="27.874,54.927 19.874,54.927 21.811,44.767 25.811,44.767 " /><ellipse
     style="fill:#ffffff"
     id="ellipse9"
     ry="5.5029998"
     rx="5.4689999"
     cy="40.43"
     cx="23.874001" /><path
     style="fill:none;stroke:#75715e;stroke-width:5.01569986;stroke-miterlimit:10;stroke-opacity:1"
     inkscape:connector-curvature="0"
     id="path11"
     d="m 10.782,24.445 0,-10.785 c 0,0 0.13,-11.112 13.121,-11.112 12.991,0 12.926,10.948 12.926,10.948 l 0,10.948"
     stroke-miterlimit="10" /></svg>
